<svg width="27" height="24" viewBox="0 0 27 24" fill="none" xmlns="http://www.w3.org/2000/svg">
<path d="M26.414 0.655996C26.0866 0.233001 25.5952 0 25.0302 0C24.7254 0 24.4024 0.0671546 24.0703 0.199534L1.35993 9.25435C0.152405 9.7359 -0.0101207 10.4608 0.000462888 10.85C0.0109941 11.2372 0.210667 11.9459 1.4261 12.355L6.24241 14.2124L8.78074 20.3267C9.0359 21.1723 9.56906 21.7656 10.2496 21.958C10.4064 22.0024 10.5666 22.0242 10.7279 22.0242C11.2806 22.0242 11.8464 21.7681 12.3351 21.2851L14.4381 19.206L19.5693 22.9225C20.0314 23.2819 20.5342 23.4717 21.0245 23.4716C22.0197 23.4716 22.8134 22.705 23.0466 21.5186L26.7609 2.61483C26.9135 1.83792 26.7903 1.14229 26.414 0.655996ZM7.83859 13.9254L14.3926 10.2269L9.8249 14.636C9.66227 14.7929 9.57168 15.0141 9.57142 15.2445C9.5711 15.253 9.57011 15.2613 9.57006 15.2698L9.55428 18.0581L7.83859 13.9254ZM11.2589 20.0795C11.2105 20.1275 11.1619 20.1696 11.1139 20.2062L11.1331 16.8121L13.1131 18.2463L11.2589 20.0795ZM25.2216 2.27989L21.5074 21.1836C21.4699 21.3742 21.3478 21.8176 21.0244 21.8176C20.8734 21.8176 20.686 21.7357 20.4969 21.5871C20.4887 21.5807 20.4805 21.5745 20.4722 21.5685L14.8153 17.4712C14.8145 17.4706 14.8137 17.4701 14.813 17.4695L11.6146 15.1529L20.0634 6.99756C20.3553 6.71577 20.4023 6.24938 20.173 5.90942C19.9437 5.56946 19.5098 5.46228 19.1607 5.65927L6.76724 12.6531L1.95083 10.7958C1.94732 10.7944 1.94381 10.7931 1.94024 10.7918L24.6273 1.74629C24.8185 1.67004 24.9519 1.65405 25.0302 1.65405C25.069 1.65405 25.1628 1.65857 25.1952 1.70047C25.2367 1.75412 25.289 1.93656 25.2216 2.27989Z" fill="white"/>
</svg>
