<svg width="28" height="28" viewBox="0 0 28 28" fill="none" xmlns="http://www.w3.org/2000/svg">
<path d="M23.84 4.10352C21.1939 1.45738 17.6892 0 13.9718 0C6.27808 0 0 6.27894 0 13.9718C0 16.2482 0.55899 18.4955 1.61962 20.4933L0.0240907 26.9279C-0.0449836 27.2063 0.0368822 27.5007 0.239841 27.7037C0.441521 27.9056 0.735513 27.9889 1.01565 27.9194L7.45022 26.3237C9.44804 27.3843 11.6953 27.9435 13.9718 27.9435C17.6892 27.9435 21.1939 26.4861 23.84 23.84C26.4861 21.1936 27.9435 17.6892 27.9435 13.9718C27.9435 10.2543 26.4861 6.74966 23.84 4.10352ZM13.9718 26.3062C11.8654 26.3062 9.78808 25.7641 7.9638 24.7388C7.78216 24.6367 7.56832 24.6077 7.36558 24.6578L1.94026 26.0033L3.28551 20.5777C3.33582 20.3754 3.30682 20.1614 3.20471 19.9795C2.17925 18.1554 1.63732 16.0781 1.63732 13.9718C1.63732 7.17051 7.17051 1.63732 13.9718 1.63732C20.773 1.63732 26.3062 7.17051 26.3062 13.9718C26.3062 20.773 20.773 26.3062 13.9718 26.3062Z" fill="white"/>
<path d="M21.3568 16.4576C20.8142 15.9148 20.2168 15.3669 19.5267 15.0341C18.4955 14.5371 17.5116 14.6795 16.7561 15.4351C16.4122 15.779 15.9391 16.4569 15.6669 16.7903C14.9646 16.6729 13.5616 15.4899 13.0046 14.9347C12.4496 14.3777 11.2675 12.9744 11.15 12.2737C11.4815 12.0029 12.1618 11.5279 12.5055 11.1845C13.261 10.4289 13.4034 9.44481 12.9065 8.41381C12.5737 7.7235 12.0258 7.12634 11.4834 6.58398C10.3787 5.45598 8.67462 5.37284 7.20381 6.84386C6.10459 7.94287 5.1254 9.98035 6.70131 13.4458C7.63382 15.4958 9.13661 17.309 9.87745 18.0573L9.88321 18.0631C10.6315 18.8042 12.4447 20.307 14.4948 21.2392C16.81 22.2922 19.2916 22.5421 21.0969 20.737C22.5899 19.2438 22.4641 17.5418 21.3568 16.4576ZM19.9391 19.5791C18.8729 20.6453 17.2692 20.7024 15.1725 19.7488C13.3318 18.9116 11.6651 17.5227 11.0381 16.9025C10.4179 16.2753 9.02895 14.6088 8.19174 12.768C7.23813 10.6713 7.29527 9.06767 8.36144 8.0015C8.98375 7.37919 9.70007 7.10311 10.3136 7.72968L10.3254 7.74162C11.7787 9.19495 11.6755 9.69872 11.3476 10.0266C11.0566 10.3176 10.1964 10.9018 9.91838 11.1798C9.2658 11.8321 9.38732 12.8427 10.2793 14.183C10.8117 14.9831 11.5148 15.7596 11.8465 16.0921L11.8482 16.0941C12.181 16.4258 12.9572 17.1289 13.7573 17.6612C15.0979 18.5532 16.1082 18.6745 16.7606 18.0222C17.0388 17.744 17.6227 16.8839 17.9137 16.5929C18.1354 16.3712 18.354 16.2866 18.8155 16.5091C19.3506 16.7671 19.9235 17.34 20.1989 17.6152L20.2109 17.6269C20.8424 18.2454 20.5616 18.9566 19.9391 19.5791Z" fill="white"/>
</svg>
