<svg width="26" height="26" viewBox="0 0 26 26" fill="none" xmlns="http://www.w3.org/2000/svg">
<path d="M12.8221 25.1482C12.7388 25.1482 12.6555 25.1482 12.5717 25.1478C10.6004 25.1526 8.77894 25.1025 7.00757 24.9947C5.38356 24.8959 3.90115 24.3346 2.72037 23.3719C1.58103 22.4429 0.802987 21.1867 0.407921 19.6387C0.0640855 18.2911 0.0458575 16.9682 0.0283971 15.6886C0.0157335 14.7705 0.00268622 13.6826 0 12.5763C0.00268622 11.4654 0.0157335 10.3776 0.0283971 9.45949C0.0458575 8.18013 0.0640855 6.85721 0.407921 5.50936C0.802987 3.96138 1.58103 2.70524 2.72037 1.77622C3.90115 0.81344 5.38356 0.252233 7.00776 0.153422C8.77913 0.0457854 10.601 -0.00448347 12.5765 0.00031318C14.5484 -0.00390787 16.3692 0.0457854 18.1406 0.153422C19.7646 0.252233 21.247 0.81344 22.4278 1.77622C23.5673 2.70524 24.3452 3.96138 24.7402 5.50936C25.0841 6.85702 25.1023 8.18013 25.1198 9.45949C25.1324 10.3776 25.1457 11.4654 25.1482 12.5717V12.5763C25.1457 13.6826 25.1324 14.7705 25.1198 15.6886C25.1023 16.968 25.0843 18.2909 24.7402 19.6387C24.3452 21.1867 23.5673 22.4429 22.4278 23.3719C21.247 24.3346 19.7646 24.8959 18.1406 24.9947C16.4442 25.0979 14.7017 25.1482 12.8221 25.1482ZM12.5717 23.1831C14.5109 23.1877 16.2915 23.1387 18.0212 23.0336C19.2492 22.959 20.3139 22.5605 21.1862 21.8492C21.9924 21.1917 22.5477 20.2846 22.8365 19.1529C23.1228 18.0311 23.1393 16.8266 23.1552 15.6617C23.1677 14.7498 23.1807 13.6696 23.1834 12.574C23.1807 11.4783 23.1677 10.3983 23.1552 9.48635C23.1393 8.32153 23.1228 7.117 22.8365 5.99497C22.5477 4.86334 21.9924 3.9562 21.1862 3.29868C20.3139 2.58762 19.2492 2.18912 18.0212 2.11448C16.2915 2.00915 14.5109 1.96061 12.5763 1.96483C10.6374 1.96022 8.85664 2.00915 7.12691 2.11448C5.89893 2.18912 4.83423 2.58762 3.96198 3.29868C3.15573 3.9562 2.60045 4.86334 2.31168 5.99497C2.02541 7.117 2.00891 8.32134 1.99298 9.48635C1.98051 10.3991 1.96746 11.4798 1.96477 12.5763C1.96746 13.6681 1.98051 14.749 1.99298 15.6617C2.00891 16.8266 2.02541 18.0311 2.31168 19.1529C2.60045 20.2846 3.15573 21.1917 3.96198 21.8492C4.83423 22.5603 5.89893 22.9588 7.12691 23.0334C8.85664 23.1387 10.6378 23.1879 12.5717 23.1831ZM12.5249 18.7137C9.13947 18.7137 6.38494 15.9595 6.38494 12.574C6.38494 9.18857 9.13947 6.43434 12.5249 6.43434C15.9105 6.43434 18.6648 9.18857 18.6648 12.574C18.6648 15.9595 15.9105 18.7137 12.5249 18.7137ZM12.5249 8.39904C10.2228 8.39904 8.34972 10.272 8.34972 12.574C8.34972 14.876 10.2228 16.749 12.5249 16.749C14.8271 16.749 16.7 14.876 16.7 12.574C16.7 10.272 14.8271 8.39904 12.5249 8.39904ZM19.3525 4.46963C18.5387 4.46963 17.8789 5.12927 17.8789 5.94316C17.8789 6.75706 18.5387 7.41669 19.3525 7.41669C20.1664 7.41669 20.826 6.75706 20.826 5.94316C20.826 5.12927 20.1664 4.46963 19.3525 4.46963Z" fill="white"/>
</svg>
