<svg width="18" height="18" viewBox="0 0 18 18" fill="none" xmlns="http://www.w3.org/2000/svg">
<path d="M17.4375 1.07947C17.4375 0.788361 17.3242 0.514564 17.1182 0.308914C16.7063 -0.102971 15.989 -0.102971 15.5771 0.308914L8.71875 7.16727L1.8604 0.308914C1.44851 -0.102971 0.731171 -0.102971 0.319286 0.308914C0.113366 0.514564 0 0.788366 0 1.07947C0 1.37054 0.113366 1.64433 0.319292 1.85002L7.17765 8.70837L0.319292 15.5667C0.113366 15.7724 0 16.0462 0 16.3373C0 16.6283 0.113366 16.9021 0.319292 17.1078C0.731177 17.5197 1.44852 17.5197 1.8604 17.1078L8.71875 10.2495L15.5771 17.1078C15.7831 17.3138 16.0566 17.4271 16.3477 17.4271C16.6388 17.4271 16.9123 17.3138 17.1182 17.1078C17.3242 16.9022 17.4375 16.6283 17.4375 16.3373C17.4375 16.0462 17.3242 15.7724 17.1182 15.5667L10.2599 8.70837L17.1182 1.85002C17.3242 1.64434 17.4375 1.37054 17.4375 1.07947Z" fill="#605252"/>
</svg>
