<svg width="28" height="28" viewBox="0 0 28 28" fill="none" xmlns="http://www.w3.org/2000/svg">
<path fill-rule="evenodd" clip-rule="evenodd" d="M2.625 7C2.625 6.51675 3.01675 6.125 3.5 6.125H24.5C24.9833 6.125 25.375 6.51675 25.375 7C25.375 7.48328 24.9833 7.875 24.5 7.875H3.5C3.01675 7.875 2.625 7.48328 2.625 7Z" fill="#605252"/>
<path fill-rule="evenodd" clip-rule="evenodd" d="M2.625 21C2.625 20.5167 3.01675 20.125 3.5 20.125H24.5C24.9833 20.125 25.375 20.5167 25.375 21C25.375 21.4833 24.9833 21.875 24.5 21.875H3.5C3.01675 21.875 2.625 21.4833 2.625 21Z" fill="#605252"/>
<path fill-rule="evenodd" clip-rule="evenodd" d="M7.29199 14C7.29199 13.5167 7.68371 13.125 8.16699 13.125H24.5003C24.9836 13.125 25.3753 13.5167 25.3753 14C25.3753 14.4833 24.9836 14.875 24.5003 14.875H8.16699C7.68371 14.875 7.29199 14.4833 7.29199 14Z" fill="#605252"/>
</svg>
