<svg width="26" height="26" viewBox="0 0 26 26" fill="none" xmlns="http://www.w3.org/2000/svg">
<path d="M13.0538 25.6027C12.969 25.6027 12.8843 25.6027 12.7989 25.6023C10.792 25.6072 8.9376 25.5562 7.13422 25.4464C5.48086 25.3458 3.97166 24.7745 2.76953 23.7943C1.6096 22.8485 0.817499 21.5696 0.415294 19.9937C0.0652437 18.6216 0.0466863 17.2748 0.0289104 15.9721C0.0160179 15.0375 0.00273476 13.9299 0 12.8036C0.00273476 11.6727 0.0160179 10.5651 0.0289104 9.63045C0.0466863 8.32797 0.0652437 6.98114 0.415294 5.60893C0.817499 4.03298 1.6096 2.75413 2.76953 1.80832C3.97166 0.828142 5.48086 0.256792 7.13441 0.156195C8.9378 0.0466129 10.7926 -0.0045645 12.8038 0.00031884C14.8113 -0.0039785 16.6651 0.0466129 18.4685 0.156195C20.1218 0.256792 21.631 0.828142 22.8331 1.80832C23.9933 2.75413 24.7852 4.03298 25.1874 5.60893C25.5374 6.98095 25.556 8.32797 25.5738 9.63045C25.5867 10.5651 25.6001 11.6727 25.6027 12.799V12.8036C25.6001 13.9299 25.5867 15.0375 25.5738 15.9721C25.556 17.2746 25.5376 18.6215 25.1874 19.9937C24.7852 21.5696 23.9933 22.8485 22.8331 23.7943C21.631 24.7745 20.1218 25.3458 18.4685 25.4464C16.7414 25.5515 14.9674 25.6027 13.0538 25.6027ZM12.7989 23.6021C14.7732 23.6068 16.586 23.5569 18.3469 23.4499C19.5971 23.3739 20.6811 22.9682 21.5691 22.2441C22.3899 21.5747 22.9552 20.6512 23.2492 19.4991C23.5407 18.357 23.5575 17.1307 23.5737 15.9448C23.5864 15.0164 23.5996 13.9167 23.6024 12.8013C23.5996 11.6858 23.5864 10.5862 23.5737 9.6578C23.5575 8.47193 23.5407 7.24563 23.2492 6.10332C22.9552 4.95124 22.3899 4.0277 21.5691 3.3583C20.6811 2.63439 19.5971 2.22868 18.3469 2.1527C16.586 2.04546 14.7732 1.99604 12.8036 2.00034C10.8297 1.99565 9.01671 2.04546 7.25572 2.1527C6.00554 2.22868 4.9216 2.63439 4.03358 3.3583C3.21276 4.0277 2.64745 4.95124 2.35346 6.10332C2.06201 7.24563 2.04521 8.47173 2.029 9.6578C2.0163 10.587 2.00302 11.6873 2.00028 12.8036C2.00302 13.9151 2.0163 15.0156 2.029 15.9448C2.04521 17.1307 2.06201 18.357 2.35346 19.4991C2.64745 20.6512 3.21276 21.5747 4.03358 22.2441C4.9216 22.968 6.00554 23.3737 7.25572 23.4497C9.01671 23.5569 10.8301 23.6069 12.7989 23.6021ZM12.7512 19.052C9.30465 19.052 6.50034 16.248 6.50034 12.8013C6.50034 9.35464 9.30465 6.55063 12.7512 6.55063C16.198 6.55063 19.0021 9.35464 19.0021 12.8013C19.0021 16.248 16.198 19.052 12.7512 19.052ZM12.7512 8.55084C10.4075 8.55084 8.50062 10.4577 8.50062 12.8013C8.50062 15.1449 10.4075 17.0518 12.7512 17.0518C15.0951 17.0518 17.0018 15.1449 17.0018 12.8013C17.0018 10.4577 15.0951 8.55084 12.7512 8.55084ZM19.7022 4.55042C18.8738 4.55042 18.202 5.22197 18.202 6.05058C18.202 6.87918 18.8738 7.55074 19.7022 7.55074C20.5309 7.55074 21.2024 6.87918 21.2024 6.05058C21.2024 5.22197 20.5309 4.55042 19.7022 4.55042Z" fill="black"/>
</svg>
