<svg width="72" height="72" viewBox="0 0 72 72" fill="none" xmlns="http://www.w3.org/2000/svg">
<circle cx="36" cy="36" r="36" fill="#BC9A75"/>
<path d="M36.3686 37.1866C42.1972 37.1866 46.9619 32.4219 46.9619 26.5933C46.9619 20.7646 42.1972 16 36.3686 16C30.5399 16 25.7754 20.7646 25.7754 26.5933C25.7754 32.4219 30.54 37.1866 36.3686 37.1866Z" fill="#FFF5E9"/>
<path d="M54.5476 45.6528C54.2701 44.9588 53.9 44.3112 53.4837 43.7099C51.3558 40.5642 48.0715 38.4826 44.3708 37.9737C43.9082 37.9275 43.3994 38.02 43.0293 38.2975C41.0864 39.7316 38.7735 40.4717 36.368 40.4717C33.9624 40.4717 31.6495 39.7316 29.7067 38.2975C29.3365 38.02 28.8277 37.8812 28.3652 37.9737C24.6644 38.4826 21.3338 40.5642 19.2522 43.7099C18.8359 44.3112 18.4658 45.0052 18.1883 45.6528C18.0495 45.9303 18.0958 46.2541 18.2345 46.5317C18.6046 47.1793 19.0671 47.827 19.4835 48.3821C20.1311 49.261 20.825 50.0474 21.6114 50.7875C22.259 51.4351 22.9991 52.0365 23.7393 52.6378C27.3938 55.3672 31.7884 56.8011 36.3217 56.8011C40.8551 56.8011 45.2497 55.3671 48.9041 52.6378C49.6443 52.0828 50.3844 51.4351 51.0321 50.7875C51.7722 50.0474 52.5123 49.2609 53.16 48.3821C53.6225 47.7807 54.039 47.1793 54.409 46.5317C54.6402 46.2541 54.6864 45.9302 54.5476 45.6528Z" fill="#FFF5E9"/>
</svg>
