<svg width="15" height="15" viewBox="0 0 15 15" fill="none" xmlns="http://www.w3.org/2000/svg">
<path d="M13.7716 7.70573C13.5864 7.27223 13.3197 6.87834 12.9859 6.54548L10.2295 3.78905C10.0736 3.63315 9.8782 3.52263 9.66426 3.46935C9.45031 3.41607 9.2259 3.42205 9.0151 3.48664C8.8043 3.55123 8.61506 3.67199 8.46768 3.83597C8.32031 3.99995 8.22036 4.20097 8.17856 4.41745C8.01178 4.33581 7.82841 4.29375 7.64272 4.29454C7.45704 4.29534 7.27404 4.33897 7.10796 4.42204C6.94189 4.5051 6.79722 4.62537 6.68521 4.77347C6.5732 4.92158 6.49687 5.09353 6.46217 5.27594C6.30198 5.19644 6.12603 5.1538 5.94722 5.15113C5.76841 5.14847 5.59127 5.18585 5.42878 5.26055C5.2663 5.33524 5.12258 5.44535 5.00818 5.5828C4.89378 5.72025 4.81159 5.88156 4.76763 6.05491L2.07253 3.3598C1.84122 3.13904 1.53377 3.01587 1.21403 3.01587C0.894283 3.01587 0.586829 3.13904 0.355526 3.3598C0.127883 3.58751 0 3.89632 0 4.2183C0 4.54029 0.127883 4.84909 0.355526 5.0768L6.35349 11.0754C6.36533 11.0863 6.3734 11.1007 6.37657 11.1165C6.37973 11.1323 6.37781 11.1488 6.3711 11.1634C6.36573 11.1787 6.35554 11.1918 6.34207 11.2008C6.3286 11.2098 6.31258 11.2141 6.29642 11.2132H4.92853C4.52968 11.212 4.13845 11.3225 3.79916 11.5321C3.45987 11.7418 3.18606 12.0423 3.00874 12.3996C2.94675 12.5233 2.91415 12.6597 2.91349 12.7982C2.91282 12.9366 2.94411 13.0733 3.00491 13.1977C3.06571 13.3221 3.15439 13.4307 3.26405 13.5152C3.3737 13.5997 3.50138 13.6578 3.63713 13.6849L7.16463 14.3904C7.71515 14.5018 8.27408 14.5666 8.83549 14.5841H8.93749C10.021 14.5728 11.0561 14.1337 11.8172 13.3625L12.8882 12.2933C13.4795 11.706 13.8801 10.9542 14.0376 10.1358C14.1952 9.31745 14.1025 8.4706 13.7716 7.70573ZM12.4589 11.8628L11.3879 12.9344C11.0586 13.2717 10.6638 13.5382 10.2278 13.7174C9.79184 13.8967 9.32382 13.985 8.85249 13.9769C8.32531 13.9609 7.80046 13.9 7.28363 13.7948L3.75613 13.0893C3.71204 13.0803 3.6706 13.0613 3.63502 13.0338C3.59943 13.0062 3.57067 12.9709 3.55095 12.9304C3.53122 12.89 3.52107 12.8455 3.52128 12.8005C3.52148 12.7556 3.53204 12.7112 3.55213 12.6709C3.67927 12.4149 3.87559 12.1995 4.11886 12.0493C4.36213 11.899 4.64261 11.8199 4.92853 11.8209H6.29642C6.43239 11.8208 6.56527 11.7803 6.67827 11.7047C6.79126 11.6291 6.87931 11.5216 6.93128 11.396C6.98326 11.2703 6.99683 11.1321 6.97028 10.9988C6.94374 10.8654 6.87826 10.7429 6.78213 10.6467L0.783562 4.64816C0.66974 4.5343 0.605799 4.3799 0.605799 4.21891C0.605799 4.05792 0.66974 3.90352 0.783562 3.78966C0.899142 3.67914 1.0529 3.61746 1.21281 3.61746C1.37273 3.61746 1.52648 3.67914 1.64206 3.78966L5.07545 7.22245L5.5041 7.65109C5.56135 7.70639 5.63803 7.73698 5.71763 7.73629C5.79723 7.7356 5.87337 7.70367 5.92965 7.64739C5.98593 7.59111 6.01786 7.51497 6.01855 7.43537C6.01924 7.35577 5.98865 7.27909 5.93335 7.22184L5.50349 6.79137C5.39571 6.67627 5.33693 6.52376 5.3396 6.36609C5.34227 6.20843 5.40618 6.05799 5.5178 5.9466C5.62942 5.83522 5.77999 5.77163 5.93766 5.7693C6.09533 5.76696 6.24773 5.82606 6.3626 5.93409L7.00678 6.57766C7.06403 6.63296 7.14071 6.66356 7.22031 6.66286C7.2999 6.66217 7.37604 6.63025 7.43233 6.57396C7.48861 6.51768 7.52054 6.44154 7.52123 6.36194C7.52192 6.28235 7.49132 6.20566 7.43603 6.14841L7.2211 5.93409C7.10717 5.82024 7.04314 5.66581 7.04308 5.50475C7.04303 5.34369 7.10695 5.18921 7.22079 5.07528C7.33464 4.96136 7.48908 4.89733 7.65013 4.89727C7.81119 4.89721 7.96567 4.96114 8.0796 5.07498L8.72378 5.71916C8.75178 5.74815 8.78528 5.77128 8.82231 5.78719C8.85935 5.8031 8.89919 5.81147 8.93949 5.81182C8.9798 5.81217 9.01978 5.80449 9.05708 5.78923C9.09439 5.77397 9.12829 5.75143 9.15679 5.72292C9.18529 5.69442 9.20783 5.66052 9.2231 5.62322C9.23836 5.58591 9.24604 5.54593 9.24569 5.50563C9.24534 5.46532 9.23697 5.42548 9.22106 5.38845C9.20515 5.35141 9.18202 5.31791 9.15303 5.28991L8.9381 5.07498C8.83039 4.95981 8.77172 4.80724 8.7745 4.64958C8.77728 4.49191 8.84129 4.34151 8.95299 4.23021C9.06469 4.1189 9.21532 4.05542 9.37299 4.0532C9.53067 4.05098 9.68302 4.11019 9.79781 4.2183L12.5542 6.97534C12.8334 7.25399 13.0562 7.58381 13.2106 7.94677C13.4932 8.59948 13.5726 9.32218 13.4385 10.0207C13.3045 10.7192 12.9631 11.3611 12.4589 11.8628Z" fill="#909090"/>
<path d="M4.0429 3.00051L6.4399 3.39273C6.45618 3.39512 6.47261 3.39634 6.48907 3.39637C6.56567 3.3968 6.63959 3.36827 6.69602 3.31648C6.75246 3.2647 6.78724 3.1935 6.79338 3.11716C6.79953 3.04081 6.77658 2.96496 6.72916 2.90482C6.68173 2.84468 6.61332 2.80469 6.53765 2.79287L4.8164 2.51176C5.99796 1.76838 7.4054 1.46946 8.78711 1.66844C10.1402 1.85646 11.3878 2.5033 12.3213 3.5008C12.3762 3.55973 12.4523 3.59444 12.5328 3.59729C12.6133 3.60013 12.6916 3.57089 12.7505 3.51598C12.8095 3.46107 12.8442 3.38499 12.847 3.30449C12.8499 3.22399 12.8206 3.14566 12.7657 3.08673C11.7371 1.98765 10.3625 1.27484 8.8715 1.06737C7.35715 0.84911 5.81444 1.17434 4.51707 1.98537L4.78422 0.352761C4.79718 0.273215 4.77801 0.191778 4.73093 0.126364C4.68385 0.0609509 4.61271 0.0169199 4.53316 0.00395742C4.45362 -0.00900503 4.37218 0.0101629 4.30677 0.0572446C4.24135 0.104326 4.19732 0.175465 4.18436 0.255011L3.79215 2.6514C3.78564 2.6908 3.78697 2.73109 3.79605 2.76997C3.80514 2.80884 3.8218 2.84555 3.8451 2.87798C3.86839 2.91041 3.89785 2.93792 3.93179 2.95895C3.96573 2.97997 4.00349 2.9941 4.0429 3.00051Z" fill="#909090"/>
</svg>
