<svg width="28" height="24" viewBox="0 0 28 24" fill="none" xmlns="http://www.w3.org/2000/svg">
<path d="M26.8914 0.667852C26.5581 0.237212 26.0578 0 25.4826 0C25.1722 0 24.8434 0.0683683 24.5054 0.20314L1.38451 9.4216C0.15516 9.91185 -0.0103036 10.6498 0.000471254 11.046C0.0111928 11.4403 0.214475 12.1618 1.45188 12.5783L6.35523 14.4692L8.93944 20.694C9.19921 21.555 9.742 22.1589 10.4348 22.3548C10.5945 22.4 10.7576 22.4223 10.9218 22.4223C11.4844 22.4223 12.0605 22.1615 12.558 21.6698L14.699 19.5531L19.923 23.3368C20.3934 23.7027 20.9053 23.8959 21.4045 23.8958C22.4177 23.8958 23.2257 23.1153 23.4631 21.9075L27.2445 2.66209C27.3999 1.87114 27.2745 1.16293 26.8914 0.667852ZM7.98026 14.1771L14.6527 10.4117L10.0025 14.9005C9.8369 15.0603 9.74467 15.2854 9.7444 15.5201C9.74408 15.5287 9.74307 15.5371 9.74302 15.5458L9.72696 18.3844L7.98026 14.1771ZM11.4624 20.4424C11.4131 20.4912 11.3636 20.5341 11.3148 20.5714L11.3343 17.1159L13.3501 18.576L11.4624 20.4424ZM25.6774 2.32109L21.8961 21.5664C21.858 21.7605 21.7337 22.2119 21.4044 22.2119C21.2506 22.2119 21.0599 22.1286 20.8673 21.9772C20.859 21.9707 20.8507 21.9644 20.8422 21.9583L15.083 17.7869C15.0822 17.7864 15.0814 17.7858 15.0807 17.7852L11.8245 15.4268L20.426 7.12403C20.7232 6.83714 20.7711 6.36233 20.5376 6.01622C20.3042 5.67012 19.8624 5.561 19.507 5.76155L6.88955 12.8818L1.98608 10.9909C1.98251 10.9895 1.97894 10.9882 1.97531 10.9868L25.0724 1.77785C25.267 1.70022 25.4029 1.68394 25.4826 1.68394C25.5221 1.68394 25.6176 1.68855 25.6505 1.73121C25.6928 1.78582 25.7461 1.97156 25.6774 2.32109Z" fill="black"/>
</svg>
