<svg width="29" height="29" viewBox="0 0 29 29" fill="none" xmlns="http://www.w3.org/2000/svg">
<path d="M24.2709 4.17769C21.5769 1.48372 18.0089 0 14.2243 0C6.39155 0 0 6.39242 0 14.2243C0 16.5419 0.569093 18.8298 1.64889 20.8637L0.0245261 27.4145C-0.0457966 27.698 0.0375488 27.9977 0.244176 28.2044C0.449501 28.4099 0.748806 28.4948 1.034 28.424L7.58487 26.7994C9.6188 27.8792 11.9067 28.4486 14.2243 28.4486C18.0089 28.4486 21.5769 26.9648 24.2709 24.2709C26.9648 21.5767 28.4486 18.0089 28.4486 14.2243C28.4486 10.4397 26.9648 6.87165 24.2709 4.17769ZM14.2243 26.7816C12.0799 26.7816 9.96498 26.2297 8.10773 25.1859C7.9228 25.082 7.70511 25.0524 7.4987 25.1035L1.97533 26.4732L3.34489 20.9496C3.39611 20.7437 3.36659 20.5258 3.26262 20.3406C2.21864 18.4836 1.66691 16.3687 1.66691 14.2243C1.66691 7.3001 7.3001 1.66691 14.2243 1.66691C21.1485 1.66691 26.7817 7.3001 26.7817 14.2243C26.7817 21.1485 21.1485 26.7816 14.2243 26.7816Z" fill="black"/>
<path d="M21.742 16.7561C21.1896 16.2035 20.5815 15.6457 19.8789 15.3069C18.829 14.801 17.8274 14.946 17.0582 15.7152C16.7081 16.0653 16.2265 16.7555 15.9493 17.095C15.2343 16.9754 13.806 15.771 13.2388 15.2058C12.6739 14.6387 11.4703 13.2101 11.3507 12.4966C11.6883 12.221 12.3808 11.7374 12.7307 11.3877C13.4999 10.6185 13.6449 9.61666 13.139 8.56703C12.8002 7.86423 12.2424 7.25629 11.6902 6.70413C10.5655 5.55574 8.83063 5.47109 7.33324 6.96871C6.21415 8.08757 5.21727 10.1619 6.82166 13.6899C7.77102 15.7771 9.30097 17.623 10.0552 18.3849L10.0611 18.3907C10.8229 19.1452 12.6689 20.6751 14.756 21.6243C17.1131 22.6962 19.6395 22.9506 21.4774 21.1129C22.9974 19.5927 22.8693 17.86 21.742 16.7561ZM20.2987 19.9341C19.2132 21.0196 17.5806 21.0777 15.446 20.1069C13.572 19.2546 11.8751 17.8405 11.2368 17.2091C10.6054 16.5706 9.19136 14.8739 8.33903 13C7.36818 10.8653 7.42635 9.23271 8.5118 8.14726C9.14535 7.51371 9.87462 7.23263 10.4993 7.87053L10.5112 7.88268C11.9908 9.36228 11.8858 9.87516 11.5519 10.209C11.2557 10.5052 10.3799 11.0999 10.0969 11.383C9.4325 12.0471 9.55622 13.0759 10.4643 14.4405C11.0063 15.2551 11.7221 16.0455 12.0598 16.3841L12.0616 16.3861C12.4004 16.7238 13.1906 17.4396 14.0052 17.9816C15.37 18.8897 16.3986 19.0132 17.0627 18.349C17.346 18.0658 17.9405 17.1902 18.2367 16.894C18.4625 16.6682 18.6849 16.5821 19.1548 16.8087C19.6996 17.0713 20.2828 17.6545 20.5632 17.9347L20.5754 17.9466C21.2183 18.5763 20.9324 19.3004 20.2987 19.9341Z" fill="black"/>
</svg>
